<svg xmlns="http://www.w3.org/2000/svg" viewBox="0 0 2560 2560"><defs><linearGradient id="g" x1="0%" y1="0%" x2="0%" y2="100%"><stop offset="0%" stop-color="#6B9FBF"/><stop offset="100%" stop-color="#2D5A7B"/></linearGradient></defs><path d="M0 1280 l0 -1280 1280 0 1280 0 0 895 c0 891 0 896 -20 885 -23 -12 -40 -44 -64 -116 -9 -28 -28 -62 -42 -74 -51 -49 -54 -84 -54 -589 0 -299 -4 -480 -11 -504 -7 -27 -20 -44 -41 -55 -55 -30 -87 -63 -107 -107 -38 -86 41 -80 -1046 -80 -1037 0 -1018 -1 -1053 53 -16 24 -17 82 -17 727 0 796 -7 731 87 782 42 22 59 39 81 80 16 29 37 58 48 64 13 7 215 10 619 9 500 0 605 2 634 14 40 17 79 77 105 164 24 79 92 148 170 173 31 9 82 27 113 38 35 13 82 21 118 21 36 0 83 -8 118 -21 31 -11 82 -29 113 -38 81 -26 146 -94 171 -178 18 -61 46 -103 68 -103 6 0 10 93 10 260 l0 260 -1280 0 -1280 0 0 -1280z" fill="url(#g)"/></svg>
