<svg xmlns="http://www.w3.org/2000/svg" viewBox="0 0 256 256"><defs><linearGradient id="g" x1="0%" y1="0%" x2="0%" y2="100%"><stop offset="0%" stop-color="#6B9FBF"/><stop offset="100%" stop-color="#2D5A7B"/></linearGradient></defs><path d="M240,192h-8V56a16,16,0,0,0-16-16H40A16,16,0,0,0,24,56V192H16a8,8,0,0,0,0,16H240a8,8,0,0,0,0-16ZM40,56H216V192H200V168a8,8,0,0,0-8-8H120a8,8,0,0,0-8,8v24H72V88H184v48a8,8,0,0,0,16,0V80a8,8,0,0,0-8-8H64a8,8,0,0,0-8,8V192H40ZM184,192H128V176h56Z" fill="url(#g)"/></svg>