<svg xmlns="http://www.w3.org/2000/svg" viewBox="0 0 2560 2560"><defs><linearGradient id="g" x1="0%" y1="0%" x2="0%" y2="100%"><stop offset="0%" stop-color="#6B9FBF"/><stop offset="100%" stop-color="#2D5A7B"/></linearGradient></defs><path d="M0 1280 l0 -1280 1280 0 1280 0 0 1280 0 1280 -1280 0 -1280 0 0 -1280z m1797 692 c15 -12 45 -33 65 -47 21 -14 49 -42 63 -63 14 -20 35 -50 47 -65 l23 -28 0 -489 0 -489 -23 -28 c-12 -15 -33 -45 -47 -65 -14 -21 -42 -49 -63 -63 -20 -14 -50 -35 -65 -47 l-28 -23 -489 0 -489 0 -28 23 c-15 12 -45 33 -65 47 -21 14 -49 42 -63 63 -14 20 -35 50 -47 65 -23 28 -23 29 -26 470 -2 243 0 466 3 494 5 37 16 65 38 94 65 85 151 158 200 170 18 4 242 7 499 6 l467 -2 28 -23z" fill="url(#g)"/></svg>
